<?xml version="1.0" encoding="UTF-8" standalone="no"?>
<svg
   xmlns:dc="http://purl.org/dc/elements/1.1/"
   xmlns:cc="http://web.resource.org/cc/"
   xmlns:rdf="http://www.w3.org/1999/02/22-rdf-syntax-ns#"
   xmlns:svg="http://www.w3.org/2000/svg"
   xmlns="http://www.w3.org/2000/svg"
   xmlns:sodipodi="http://sodipodi.sourceforge.net/DTD/sodipodi-0.dtd"
   xmlns:inkscape="http://www.inkscape.org/namespaces/inkscape"
   version="1.1"
   width="128"
   height="128"
   viewBox="0 0 128 128"
   overflow="visible"
   enable-background="new 0 0 128 128"
   xml:space="preserve"
   id="svg2"
   sodipodi:version="0.32"
   inkscape:version="0.44.1"
   sodipodi:docname="process-stop.svg"
   sodipodi:docbase="/home/alex/Desktop/icons/human-icon-theme-0.8/scalable/actions"><metadata
   id="metadata76"><rdf:RDF><cc:Work
       rdf:about=""><dc:format>image/svg+xml</dc:format><dc:type
         rdf:resource="http://purl.org/dc/dcmitype/StillImage" /></cc:Work></rdf:RDF></metadata><defs
   id="defs74" /><sodipodi:namedview
   inkscape:window-height="626"
   inkscape:window-width="915"
   inkscape:pageshadow="2"
   inkscape:pageopacity="0.0"
   guidetolerance="10.0"
   gridtolerance="10.0"
   objecttolerance="10.0"
   borderopacity="1.0"
   bordercolor="#666666"
   pagecolor="#ffffff"
   id="base"
   inkscape:zoom="2.2483786"
   inkscape:cx="109.89248"
   inkscape:cy="76.843672"
   inkscape:window-x="3"
   inkscape:window-y="30"
   inkscape:current-layer="g2914" />
	<path
   opacity="0.2"
   d="M41.5,3c-1.077,0-2.36,0.531-3.121,1.293L5.293,37.379C4.532,38.14,4,39.423,4,40.5v47   c0,1.077,0.532,2.36,1.293,3.121l33.086,33.086C39.14,124.469,40.423,125,41.5,125h47c1.076,0,2.359-0.531,3.121-1.293   l33.086-33.086C125.469,89.86,126,88.577,126,87.5v-47c0-1.077-0.531-2.36-1.293-3.121L91.621,4.293C90.859,3.531,89.576,3,88.5,3   H41.5z"
   id="path4" />
	<path
   opacity="0.2"
   d="M41.5,4c-0.819,0-1.835,0.421-2.414,1L6,38.086c-0.58,0.579-1,1.595-1,2.414v47c0,0.819,0.42,1.835,1,2.414   L39.086,123c0.579,0.579,1.595,1,2.414,1h47c0.819,0,1.835-0.421,2.414-1L124,89.914c0.58-0.579,1-1.595,1-2.414v-47   c0-0.819-0.42-1.835-1-2.414L90.914,5c-0.579-0.579-1.595-1-2.414-1H41.5z"
   id="path6" />
	<linearGradient
   id="XMLID_6_"
   gradientUnits="userSpaceOnUse"
   x1="65"
   y1="4"
   x2="65"
   y2="126.3333">
		<stop
   offset="0"
   style="stop-color:#A70000"
   id="stop9" />
		<stop
   offset="1"
   style="stop-color:#A70000"
   id="stop11" />
	</linearGradient>
	<path
   d="M41.5,3c-0.819,0-1.835,0.421-2.414,1L6,37.086c-0.58,0.579-1,1.595-1,2.414v47   c0,0.819,0.42,1.835,1,2.414L39.086,122c0.579,0.579,1.595,1,2.414,1h47c0.819,0,1.835-0.421,2.414-1L124,88.914   c0.58-0.579,1-1.595,1-2.414v-47c0-0.819-0.42-1.835-1-2.414L90.914,4c-0.579-0.579-1.595-1-2.414-1H41.5z"
   id="path13"
   fill="url(#XMLID_6_)" />
	<linearGradient
   id="XMLID_7_"
   gradientUnits="userSpaceOnUse"
   x1="62.4341"
   y1="48.8359"
   x2="75.4341"
   y2="120.5859">
		<stop
   offset="0"
   style="stop-color:#BD0000"
   id="stop16" />
		<stop
   offset="0.3522"
   style="stop-color:#C40000"
   id="stop18" />
		<stop
   offset="0.8691"
   style="stop-color:#D80000"
   id="stop20" />
		<stop
   offset="1"
   style="stop-color:#DE0000"
   id="stop22" />
	</linearGradient>
	<path
   d="M90.207,121.293C89.818,121.682,89.05,122,88.5,122h-47c-0.55,0-1.318-0.318-1.707-0.707   L6.707,88.207C6.318,87.818,6,87.05,6,86.5v-47c0-0.55,0.318-1.318,0.707-1.707L39.793,4.707C40.182,4.318,40.95,4,41.5,4h47   c0.55,0,1.318,0.318,1.707,0.707l33.086,33.086C123.682,38.182,124,38.95,124,39.5v47c0,0.55-0.318,1.318-0.707,1.707   L90.207,121.293z"
   id="path24"
   fill="url(#XMLID_7_)" />
	<linearGradient
   id="XMLID_8_"
   gradientUnits="userSpaceOnUse"
   x1="65"
   y1="81.5"
   x2="65"
   y2="123.4998">
		<stop
   offset="0"
   style="stop-color:#BD0000"
   id="stop27" />
		<stop
   offset="0.0432"
   style="stop-color:#C10606"
   id="stop29" />
		<stop
   offset="0.2944"
   style="stop-color:#D62424"
   id="stop31" />
		<stop
   offset="0.5413"
   style="stop-color:#E63A3A"
   id="stop33" />
		<stop
   offset="0.7796"
   style="stop-color:#EF4747"
   id="stop35" />
		<stop
   offset="1"
   style="stop-color:#F24B4B"
   id="stop37" />
	</linearGradient>
	<path
   fill="url(#XMLID_8_)"
   d="M90.207,120.293C89.818,120.682,89.05,121,88.5,121h-47c-0.55,0-1.318-0.318-1.707-0.707   L6.707,87.207C6.318,86.818,6,86.05,6,85.5v1c0,0.55,0.318,1.318,0.707,1.707l33.086,33.086C40.182,121.682,40.95,122,41.5,122h47   c0.55,0,1.318-0.318,1.707-0.707l33.086-33.086C123.682,87.818,124,87.05,124,86.5v-1c0,0.55-0.318,1.318-0.707,1.707   L90.207,120.293z"
   id="path39" />
	<linearGradient
   id="XMLID_9_"
   gradientUnits="userSpaceOnUse"
   x1="24.2324"
   y1="6.876"
   x2="79.9819"
   y2="83.6252">
		<stop
   offset="0"
   style="stop-color:#E05E5E"
   id="stop42" />
		<stop
   offset="1"
   style="stop-color:#D81818"
   id="stop44" />
	</linearGradient>
	<path
   d="M55.459,71.301C88,63.75,124,66.25,124,66.25V39.5c0-0.55-0.318-1.318-0.707-1.707L90.207,4.707   C89.818,4.318,89.05,4,88.5,4h-47c-0.55,0-1.318,0.318-1.707,0.707L6.707,37.793C6.318,38.182,6,38.95,6,39.5v47   c0,0.55,0.318,1.318,0.707,1.707l3.667,3.667C10.374,91.874,29.005,77.439,55.459,71.301z"
   id="path46"
   fill="url(#XMLID_9_)" />
	<linearGradient
   id="XMLID_10_"
   gradientUnits="userSpaceOnUse"
   x1="-1"
   y1="22.2998"
   x2="141.6667"
   y2="22.2998">
		<stop
   offset="0"
   style="stop-color:#E57373"
   id="stop49" />
		<stop
   offset="0.118"
   style="stop-color:#EC9393"
   id="stop51" />
		<stop
   offset="0.2664"
   style="stop-color:#F4B4B4"
   id="stop53" />
		<stop
   offset="0.3897"
   style="stop-color:#F9C9C9"
   id="stop55" />
		<stop
   offset="0.4719"
   style="stop-color:#FBD0D0"
   id="stop57" />
		<stop
   offset="0.5484"
   style="stop-color:#F9C8C8"
   id="stop59" />
		<stop
   offset="0.6698"
   style="stop-color:#F5B1B1"
   id="stop61" />
		<stop
   offset="0.8208"
   style="stop-color:#ED8B8B"
   id="stop63" />
		<stop
   offset="0.9942"
   style="stop-color:#E35858"
   id="stop65" />
		<stop
   offset="1"
   style="stop-color:#E35656"
   id="stop67" />
	</linearGradient>
	<path
   d="M123.293,37.793L90.207,4.707C89.818,4.318,89.05,4,88.5,4h-47c-0.55,0-1.318,0.318-1.707,0.707   L6.707,37.793C6.318,38.182,6,38.95,6,39.5v1.1c0-0.55,0.318-1.318,0.707-1.707L39.793,5.809C40.182,5.42,40.95,5.102,41.5,5.102   h47c0.55,0,1.318,0.318,1.707,0.707l33.086,33.084C123.682,39.281,124,40.05,124,40.6v-1.1   C124,38.95,123.682,38.182,123.293,37.793z"
   id="path69"
   fill="url(#XMLID_10_)" />
	
<g
   id="g2914"><path
     style="opacity:1;fill:white;fill-opacity:1;stroke:none;stroke-width:3;stroke-miterlimit:4;stroke-dasharray:none;stroke-opacity:1"
     d="M 43.781253,27.640625 L 29.656253,41.765625 L 50.875003,62.984375 L 29.656253,84.203125 L 43.781253,98.359375 L 65.000002,77.140625 L 86.218752,98.359375 L 100.34375,84.203125 L 79.125002,62.984375 L 100.34375,41.765625 L 86.218752,27.640625 L 65.000002,48.859375 L 43.781253,27.640625 z "
     id="rect1944" /></g></svg>