<?xml version="1.0" encoding="UTF-8" standalone="no"?>
<!-- Created with Inkscape (http://www.inkscape.org/) -->
<svg
   xmlns:dc="http://purl.org/dc/elements/1.1/"
   xmlns:cc="http://web.resource.org/cc/"
   xmlns:rdf="http://www.w3.org/1999/02/22-rdf-syntax-ns#"
   xmlns:svg="http://www.w3.org/2000/svg"
   xmlns="http://www.w3.org/2000/svg"
   xmlns:sodipodi="http://sodipodi.sourceforge.net/DTD/sodipodi-0.dtd"
   xmlns:inkscape="http://www.inkscape.org/namespaces/inkscape"
   id="svg5040"
   sodipodi:version="0.32"
   inkscape:version="0.45"
   width="150"
   height="170"
   sodipodi:docbase="/home/tito/prog/pida/pida/services/trac/pixmaps"
   sodipodi:docname="trac_logo.svg"
   inkscape:export-filename="/home/daniel/website2/gfx/trac_logo.png"
   inkscape:export-xdpi="31.444899"
   inkscape:export-ydpi="31.444899"
   inkscape:output_extension="org.inkscape.output.svg.inkscape"
   sodipodi:modified="true"
   version="1.0">
  <defs
     id="defs5042" />
  <sodipodi:namedview
     id="base"
     pagecolor="#ffffff"
     bordercolor="#666666"
     borderopacity="1.0"
     inkscape:pageopacity="1.0000000"
     inkscape:pageshadow="2"
     inkscape:zoom="1.2279853"
     inkscape:cx="-9.337436"
     inkscape:cy="80.680418"
     inkscape:window-width="872"
     inkscape:window-height="585"
     inkscape:window-x="282"
     inkscape:window-y="264"
     width="150px"
     height="170px"
     inkscape:current-layer="svg5040" />
  <metadata
     id="metadata4402">
    <rdf:RDF>
      <cc:Work
         rdf:about="">
        <dc:format>image/svg+xml</dc:format>
        <dc:type
           rdf:resource="http://purl.org/dc/dcmitype/StillImage" />
      </cc:Work>
    </rdf:RDF>
  </metadata>
  <g
     id="g4408"
     transform="matrix(1.124394,-0.316118,0.316118,1.124394,-9.270027,29.362266)"
     style="font-size:12px;fill:#c00000;fill-opacity:1;stroke:none;stroke-width:1.25;stroke-opacity:1"
     sodipodi:fill-cmyk="(0.24705882 1.0000000 1.0000000 0.0000000)">
    <path
       d="M 1.64865,89.7548 C 4.91705,96.9453 11.692,104.967 17.5751,104.313 C 23.4582,103.66 29.9951,88.625 28.6877,86.0103 C 27.3803,83.3956 22.0302,63.6063 13.4753,63.8444 C 4.92047,64.0824 -1.61975,82.5643 1.64865,89.7548 z "
       id="path4409"
       style="fill:#c00000;fill-opacity:1" />
    <path
       d="M 15.7106,47.1279 C 18.2661,56.4572 29.6749,70.5387 39.8355,69.5286 C 49.996,68.5184 47.2651,54.1965 44.532,44.4528 C 44.1372,43.0455 45.2437,37.9009 43.2081,32.6565 C 41.1725,27.4121 36.8016,23.1465 32.5276,23.3562 C 20.4083,23.9507 12.4422,39.9374 15.7106,47.1279 z "
       id="path4410"
       style="fill:#c00000;fill-opacity:1" />
    <path
       d="M 57.772,55.3264 C 61.0404,62.5168 60.3298,68.7564 67.9952,70.5979 C 75.6606,72.4394 86.5379,56.0765 88.3756,48.7302 C 90.2132,41.3839 87.8703,22.9685 74.5891,22.9998 C 61.3078,23.031 56.6424,37.7988 57.772,55.3264 z "
       id="path4411"
       style="fill:#c00000;fill-opacity:1" />
    <path
       d="M 81.2979,86.6942 C 80.6453,94.2411 84.9251,100.837 94.0163,100.896 C 103.107,100.956 111.427,79.8611 110.119,77.2464 C 108.812,74.6317 108.096,62.6844 99.5407,62.9224 C 90.9859,63.1605 80.8811,76.6521 81.2979,86.6942 z "
       id="path4412"
       style="fill:#c00000;fill-opacity:1" />
    <path
       d="M 23.909,124.835 C 34.0893,132.6 41.4315,121.82 55.0637,121.878 C 68.696,121.936 77.9246,130.693 84.7485,120.501 C 93.4945,107.438 81.3489,106.352 73.8862,97.3686 C 66.4235,88.3849 70.8498,81.7448 55.582,81.1674 C 39.1205,80.5449 42.5958,98.1702 35.0228,102.132 C 24.0268,107.885 17.6289,120.044 23.909,124.835 z "
       id="path4413"
       style="fill:#c00000;fill-opacity:1" />
    <path
       d="M 0.0187378,54.9699 C 0.243256,57.9677 4.22418,61.9363 6.97052,61.544 C 9.71686,61.1517 10.3999,58.3234 10.2253,54.576 C 10.0507,50.8287 5.83322,44.9805 3.7262,45.2186 C 1.61917,45.4566 -0.20578,51.9721 0.0187378,54.9699 z "
       id="path4414"
       style="fill:#c00000;fill-opacity:1" />
    <path
       d="M 23.956,13.7574 C 24.1805,16.7552 24.1615,21.9738 28.4078,21.5815 C 32.6541,21.1891 34.5872,18.8609 34.4126,15.1135 C 34.2379,11.3661 31.0205,5.01801 28.9135,5.25604 C 26.8065,5.49408 23.7315,10.7596 23.956,13.7574 z "
       id="path4415"
       style="fill:#c00000;fill-opacity:1" />
    <path
       d="M 71.206,10.7574 C 71.4305,13.7552 75.1615,19.7238 77.9078,19.3315 C 80.6541,18.9391 83.3372,14.1109 83.1626,10.3635 C 82.9879,6.61615 79.2705,-0.231995 77.1635,0.00604248 C 75.0565,0.24408 70.9815,7.75958 71.206,10.7574 z "
       id="path4416"
       style="fill:#c00000;fill-opacity:1" />
    <path
       d="M 98.456,55.0074 C 98.6805,58.0052 99.6615,61.2238 102.408,60.8315 C 105.154,60.4391 108.587,58.8609 108.413,55.1135 C 108.238,51.3661 107.771,42.768 105.663,43.006 C 103.556,43.2441 98.2315,52.0096 98.456,55.0074 z "
       id="path4417"
       style="fill:#c00000;fill-opacity:1" />
  </g>
</svg>
